<?xml version="1.0" encoding="utf-8"?>
<!-- Generator: Adobe Illustrator 17.0.2, SVG Export Plug-In . SVG Version: 6.00 Build 0)  -->
<!DOCTYPE svg PUBLIC "-//W3C//DTD SVG 1.1//EN" "http://www.w3.org/Graphics/SVG/1.1/DTD/svg11.dtd">
<svg version="1.1" xmlns="http://www.w3.org/2000/svg" xmlns:xlink="http://www.w3.org/1999/xlink" x="0px" y="0px"
	 width="500px" height="500px" viewBox="0 0 2792.002 3000" enable-background="new 0 0 2792.002 3000" xml:space="preserve">
<g id="Calque_1">
	<polygon opacity="0.4" fill="#E5E5E5" points="180.311,1573.772 9.78,1260.528 9.78,2261.178 180.311,1950.619 	"/>
	<polygon opacity="0.4" fill="#E5E5E5" points="214.815,578.908 997.548,603.119 1044.899,0 9.78,0 9.78,912.932 214.815,885.585 	
		"/>
	<polygon opacity="0.4" fill="#E5E5E5" points="631.193,880.984 259.257,918.33 259.257,924.628 9.78,954.876 9.78,1171.722 
		11.52,1170.774 224.754,1562.462 224.754,1636.245 607.566,1622.858 	"/>
	<polygon opacity="0.4" fill="#E5E5E5" points="650.897,1658.464 650.663,1665.825 224.754,1680.716 224.754,1962.016 
		11.481,2350.412 9.78,2349.478 9.78,3000 814.4,3000 906.98,1658.464 	"/>
	<polygon opacity="0.4" fill="#E5E5E5" points="897.671,2438.883 858.95,3000 1961.971,3000 2037.28,2585.804 	"/>
	<polygon opacity="0.4" fill="#E5E5E5" points="996.937,647.563 259.257,624.748 259.257,873.664 677.228,831.699 677.122,835.047 
		989.484,803.248 	"/>
	<polygon opacity="0.4" fill="#E5E5E5" points="1042.283,1007.825 994.591,847.401 675.694,879.863 652.312,1614.022 
		908.463,1614.022 928.463,1326.001 	"/>
	<polygon opacity="0.4" fill="#E5E5E5" points="1250.449,0 1089.479,0 1040.739,620.78 1042.706,620.874 1033.125,821.068 
		1068.577,940.318 1187.877,619.674 	"/>
	<polygon opacity="0.4" fill="#E5E5E5" points="2792.002,0 1295.116,0 1233.75,607.745 2792.002,836.65 	"/>
	<polygon opacity="0.4" fill="#E5E5E5" points="2311.15,2621.579 2080.603,2595.967 2007.139,3000 2792.002,3000 2792.002,2051.955 
			"/>
	<polygon fill="#CADFAA" points="2358.737,1131.411 2418.144,822.519 1225.377,647.303 1085.66,1022.821 1084.666,1022.451 
		974.175,1331.332 954.81,1610.156 956.393,1610.156 902.536,2390.603 2045.08,2537.898 2227.476,1302.054 	"/>
	<polygon opacity="0.4" fill="#E5E5E5" points="2460.359,832.85 2398.594,1154.022 2267.958,1323.848 2087.365,2547.447 
		2089.378,2547.707 2088.573,2552.135 2292.488,2574.793 2792.002,1983.059 2792.002,881.568 	"/>
</g>
<g id="iut">
	<polygon class="iut" fill="#7C1E1E" points="201.389,1280.837 95.046,1280.837 52.107,1152.507 340.195,1139.412 340.195,1199.649 
		293.054,1210.125 290.435,1322.741 340.195,1335.836 340.195,1534.879 554.952,1534.879 554.952,1558.45 578.523,1558.45 
		578.523,1614.022 269.675,1634.674 269.483,1614.022 224.754,1614.022 219.722,1500 272.102,1485.118 272.102,1440.595 
		209.246,1437.976 	"/>
</g>
<g id="crozatier">
	<polygon class="crozatier" fill="#7C1E1E" points="1269.936,2438.883 1301.364,2236.768 1678.498,2286.528 1645.757,2490.516 	"/>
</g>
<g id="prefecture">
	<polygon class="prefecture" fill="#7C1E1E" points="1432.313,696.803 1400.891,912.932 1953.492,995.368 1987.539,777.992 	"/>
</g>
<g id="Rues">
	<text transform="matrix(0.9902 0.1393 -0.1393 0.9902 1368.2157 670.8095)" font-family="'Roboto-Light'" font-size="53.3306">Avenue du Général de Gaulle</text>
	<text transform="matrix(0.9912 -0.1323 0.1323 0.9912 25.1545 951.4713)" font-family="'Roboto-Light'" font-size="53.3306">Rue de la Ronzade</text>
	<text transform="matrix(0.9988 -0.0483 0.0483 0.9988 377.65 1676.756)" font-family="'Roboto-Light'" font-size="53.3306">Rue Charles Rocher</text>
	<text transform="matrix(0.992 0.1262 -0.1262 0.992 1462.6384 2510.7131)" font-family="'Roboto-Light'" font-size="53.3306">Rue Antoine Martin</text>
	<text transform="matrix(0.6289 -0.7775 0.7775 0.6289 2331.9324 2606.4434)" font-family="'Roboto-Light'" font-size="53.3306">Rue des Moulins</text>
	<text transform="matrix(0.1742 -0.9847 0.9847 0.1742 2135.6404 2169.897)" font-family="'Roboto-Light'" font-size="53.3306">Cours Victor Hugo</text>
	<text transform="matrix(0.999 0.0445 -0.0445 0.999 281.5325 615.2777)" font-family="'Roboto-Light'" font-size="53.3306">Rue Jean Barthélémy</text>
	<text transform="matrix(0.2912 -0.9567 0.9567 0.2912 114.2739 2251.3813)" font-family="'Roboto-Light'" font-size="53.3306">Rue Charles Rocher</text>
</g>
</svg>
